<svg xmlns="http://www.w3.org/2000/svg" version="1.1" xmlns:xlink="http://www.w3.org/1999/xlink" width="1000" height="1000"><g clip-path="url(#SvgjsClipPath1003)"><rect width="1000" height="1000" fill="#ffffff"></rect><g transform="matrix(3.5,0,0,3.5,150,150)"><svg xmlns="http://www.w3.org/2000/svg" version="1.1" xmlns:xlink="http://www.w3.org/1999/xlink" width="200" height="200"><svg xmlns="http://www.w3.org/2000/svg" version="1.1" xmlns:xlink="http://www.w3.org/1999/xlink" viewBox="0 0 200 200"><rect width="200" height="200" fill="url('#gradient')"></rect><defs><linearGradient id="gradient" gradientTransform="rotate(45 0.5 0.5)"><stop offset="0%" stop-color="#0bc7e7"></stop><stop offset="100%" stop-color="#fe4747"></stop></linearGradient><clipPath id="SvgjsClipPath1003"><rect width="1000" height="1000" x="0" y="0" rx="350" ry="350"></rect></clipPath></defs><g><g fill="#ffffff" transform="matrix(7.346353128736548,0,0,7.346353128736548,5.382995169635024,152.23682637896943)" stroke="#000000" stroke-width="0.2"><path d="M8.41-3.78L8.41-3.78Q8.41-4.53 7.88-4.95Q7.34-5.37 6.01-5.82Q4.67-6.27 3.82-6.69L3.82-6.69Q1.05-8.05 1.05-10.42L1.05-10.42Q1.05-11.60 1.74-12.50Q2.43-13.41 3.69-13.91Q4.95-14.41 6.52-14.41L6.52-14.41Q8.06-14.41 9.27-13.87Q10.49-13.32 11.16-12.31Q11.84-11.30 11.84-10L11.84-10L8.42-10Q8.42-10.87 7.89-11.35Q7.35-11.83 6.45-11.83L6.45-11.83Q5.53-11.83 5.00-11.42Q4.46-11.02 4.46-10.39L4.46-10.39Q4.46-9.84 5.05-9.40Q5.63-8.96 7.11-8.48Q8.58-8.01 9.53-7.46L9.53-7.46Q11.84-6.13 11.84-3.80L11.84-3.80Q11.84-1.93 10.43-0.87Q9.02 0.20 6.57 0.20L6.57 0.20Q4.84 0.20 3.44-0.42Q2.04-1.04 1.33-2.12Q0.63-3.20 0.63-4.61L0.63-4.61L4.06-4.61Q4.06-3.47 4.65-2.92Q5.24-2.38 6.57-2.38L6.57-2.38Q7.42-2.38 7.92-2.75Q8.41-3.12 8.41-3.78ZM21.69-4.81L25.10-4.81Q25.03-3.33 24.30-2.19Q23.56-1.05 22.24-0.43Q20.92 0.20 19.22 0.20L19.22 0.20Q16.42 0.20 14.80-1.63Q13.19-3.46 13.19-6.79L13.19-6.79L13.19-7.49Q13.19-9.58 13.92-11.15Q14.65-12.71 16.02-13.57Q17.38-14.42 19.18-14.42L19.18-14.42Q21.77-14.42 23.34-13.06Q24.91-11.70 25.13-9.31L25.13-9.31L21.71-9.31Q21.67-10.61 21.05-11.17Q20.44-11.74 19.18-11.74L19.18-11.74Q17.90-11.74 17.30-10.78Q16.71-9.82 16.68-7.72L16.68-7.72L16.68-6.72Q16.68-4.44 17.25-3.47Q17.82-2.49 19.22-2.49L19.22-2.49Q20.40-2.49 21.03-3.05Q21.65-3.60 21.69-4.81L21.69-4.81Z"></path></g></g></svg></svg></g></g></svg>